<svg width="32" height="32" viewBox="0 0 32 32" fill="none" xmlns="http://www.w3.org/2000/svg">
<rect width="32" height="32" rx="1" fill="#BAEC97"/>
<path fill-rule="evenodd" clip-rule="evenodd" d="M8.14656 10.6416C8.05219 10.6415 7.95873 10.66 7.87153 10.6961C7.78433 10.7321 7.7051 10.785 7.63837 10.8518C7.57165 10.9185 7.51874 10.9977 7.48268 11.0849C7.44662 11.1721 7.42811 11.2656 7.42822 11.3599V20.6383C7.42822 21.0349 7.74989 21.3558 8.14656 21.3558H23.8532C23.9475 21.3559 24.0409 21.3374 24.1281 21.3014C24.2152 21.2654 24.2944 21.2125 24.3611 21.1459C24.4278 21.0793 24.4808 21.0001 24.5169 20.913C24.553 20.8259 24.5716 20.7326 24.5716 20.6383V11.3599C24.5717 11.2656 24.5532 11.1721 24.5171 11.0849C24.481 10.9977 24.4281 10.9185 24.3614 10.8518C24.2947 10.785 24.2154 10.7321 24.1282 10.6961C24.041 10.66 23.9476 10.6415 23.8532 10.6416H8.14656ZM8.85739 19.9274V12.0708V13.4983C9.23606 13.4983 9.59924 13.3479 9.86708 13.0802C10.1349 12.8125 10.2855 12.4494 10.2857 12.0708H21.7141C21.7141 12.2583 21.751 12.444 21.8228 12.6172C21.8946 12.7905 21.9998 12.9479 22.1325 13.0805C22.2651 13.213 22.4226 13.3182 22.5959 13.3898C22.7691 13.4615 22.9549 13.4984 23.1424 13.4983V18.4983C22.7636 18.4985 22.4005 18.649 22.1327 18.9169C21.8648 19.1847 21.7143 19.5479 21.7141 19.9266H23.1424L8.85822 19.9274H8.85739ZM9.40406 18.6066C9.23071 18.535 9.04496 18.4982 8.85739 18.4983V19.9274L10.2857 19.9266C10.2856 19.6442 10.2018 19.3681 10.0449 19.1333C9.88798 18.8985 9.66497 18.7147 9.40406 18.6066ZM14.5707 15.9983C14.5707 15.6192 14.7213 15.2557 14.9893 14.9877C15.2573 14.7197 15.6209 14.5691 15.9999 14.5691C16.3789 14.5691 16.7424 14.7197 17.0105 14.9877C17.2785 15.2557 17.4291 15.6192 17.4291 15.9983C17.4291 16.3773 17.2785 16.7408 17.0105 17.0088C16.7424 17.2769 16.3789 17.4274 15.9999 17.4274C15.6209 17.4274 15.2573 17.2769 14.9893 17.0088C14.7213 16.7408 14.5707 16.3773 14.5707 15.9983ZM15.9999 13.1416C15.6206 13.1351 15.2438 13.2042 14.8915 13.3449C14.5392 13.4856 14.2184 13.695 13.9479 13.9609C13.6773 14.2269 13.4625 14.544 13.3158 14.8939C13.1691 15.2438 13.0936 15.6193 13.0936 15.9987C13.0936 16.378 13.1691 16.7536 13.3158 17.1035C13.4625 17.4533 13.6773 17.7705 13.9479 18.0364C14.2184 18.3024 14.5392 18.5118 14.8915 18.6525C15.2438 18.7931 15.6206 18.8622 15.9999 18.8558C16.7492 18.843 17.4635 18.5363 17.9888 18.0019C18.5142 17.4675 18.8086 16.7481 18.8086 15.9987C18.8086 15.2493 18.5142 14.5299 17.9888 13.9955C17.4635 13.461 16.7492 13.1544 15.9999 13.1416Z" fill="#0E0F0C"/>
</svg>
