<svg width="40" height="40" viewBox="0 0 40 40" fill="none" xmlns="http://www.w3.org/2000/svg">
<g clip-path="url(#clip0_1471_6270)">
<path d="M29.4291 12.285H10.5721C10.3449 12.2856 10.1271 12.376 9.96635 12.5366C9.80559 12.6971 9.7149 12.9148 9.71411 13.142V26.857C9.7149 27.0841 9.80545 27.3016 9.96599 27.4622C10.1265 27.6227 10.3441 27.7132 10.5711 27.714H29.4301C29.6572 27.7132 29.8747 27.6227 30.0352 27.4622C30.1958 27.3016 30.2863 27.0841 30.2871 26.857V13.142C30.2863 12.915 30.1958 12.6975 30.0352 12.5369C29.8747 12.3764 29.6562 12.2858 29.4291 12.285ZM26.7721 14L20.0001 18.928L13.2301 13.999H26.7731L26.7721 14ZM11.4281 26V14.814L19.4851 20.685C19.6321 20.7987 19.8133 20.8593 19.9991 20.857C20.1849 20.8593 20.3661 20.7987 20.5131 20.685L28.5711 14.814V25.999L11.4281 26Z" fill="black"/>
</g>
<defs>
<clipPath id="clip0_1471_6270">
<rect width="40" height="40" rx="20" fill="white"/>
</clipPath>
</defs>
</svg>
