<svg width="27" height="27" viewBox="0 0 27 27" fill="none" xmlns="http://www.w3.org/2000/svg">
<path d="M25.38 13.7812C25.38 12.9038 25.3013 12.06 25.155 11.25H13.5V16.0425H20.16C19.8675 17.5838 18.99 18.8887 17.6737 19.7662V22.8825H21.69C24.03 20.7225 25.38 17.55 25.38 13.7812Z" fill="#4285F4"/>
<path d="M13.4999 25.875C16.8411 25.875 19.6424 24.7725 21.6899 22.8825L17.6736 19.7663C16.5711 20.5088 15.1649 20.9588 13.4999 20.9588C10.2824 20.9588 7.54864 18.7875 6.56989 15.8625H2.45239V19.0575C4.48864 23.0963 8.66239 25.875 13.4999 25.875Z" fill="#34A853"/>
<path d="M6.57 15.8512C6.3225 15.1087 6.17625 14.3212 6.17625 13.5C6.17625 12.6787 6.3225 11.8912 6.57 11.1487V7.95374H2.4525C1.60875 9.61874 1.125 11.4975 1.125 13.5C1.125 15.5025 1.60875 17.3812 2.4525 19.0462L5.65875 16.5487L6.57 15.8512Z" fill="#FBBC05"/>
<path d="M13.4999 6.0525C15.3224 6.0525 16.9424 6.6825 18.2361 7.8975L21.7799 4.35375C19.6311 2.35125 16.8411 1.125 13.4999 1.125C8.66239 1.125 4.48864 3.90375 2.45239 7.95375L6.56989 11.1488C7.54864 8.22375 10.2824 6.0525 13.4999 6.0525Z" fill="#EA4335"/>
</svg>
