<svg width="32" height="32" viewBox="0 0 32 32" fill="none" xmlns="http://www.w3.org/2000/svg">
<path fill-rule="evenodd" clip-rule="evenodd" d="M29.8378 0H2.16216C0.972973 0 0 0.972973 0 2.16216V29.8378C0 31.027 0.972973 32 2.16216 32H29.8378C31.027 32 32 31.027 32 29.8378V2.16216C32 0.972973 31.027 0 29.8378 0Z" fill="#A50064"/>
<path d="M22.1405 15.0271C24.681 15.0271 26.7351 12.973 26.7351 10.4325C26.7351 7.89194 24.681 5.83789 22.1405 5.83789C19.6 5.83789 17.5459 7.89194 17.5459 10.4325C17.5459 12.973 19.6 15.0271 22.1405 15.0271ZM22.1405 8.47573C23.2216 8.47573 24.0972 9.3514 24.0972 10.4325C24.0972 11.5136 23.2216 12.3892 22.1405 12.3892C21.0594 12.3892 20.1837 11.5136 20.1837 10.4325C20.1837 9.3514 21.0594 8.47573 22.1405 8.47573Z" fill="white"/>
<path d="M22.1405 17.0162C19.6 17.0162 17.5459 19.0703 17.5459 21.6108C17.5459 24.1514 19.6 26.2054 22.1405 26.2054C24.681 26.2054 26.7351 24.1514 26.7351 21.6108C26.7351 19.0703 24.681 17.0162 22.1405 17.0162ZM22.1405 23.5676C21.0594 23.5676 20.1837 22.6919 20.1837 21.6108C20.1837 20.5297 21.0594 19.6541 22.1405 19.6541C23.2216 19.6541 24.0972 20.5297 24.0972 21.6108C24.0972 22.6919 23.2216 23.5676 22.1405 23.5676Z" fill="white"/>
<path d="M12.7781 17.0162C11.9997 17.0162 11.2862 17.2757 10.7132 17.7081C10.1402 17.2757 9.41592 17.0162 8.64836 17.0162C6.74565 17.0162 5.19971 18.5622 5.19971 20.4649V26.2162H7.83755V20.4325C7.83755 20 8.18349 19.6541 8.61592 19.6541C9.04836 19.6541 9.3943 20 9.3943 20.4325V26.2054H12.0321V20.4325C12.0321 20 12.3781 19.6541 12.8105 19.6541C13.243 19.6541 13.5889 20 13.5889 20.4325V26.2054H16.2159V20.4541C16.2159 18.5622 14.6808 17.0162 12.7781 17.0162Z" fill="white"/>
<path d="M12.7782 5.83789C11.9998 5.83789 11.2863 6.09735 10.7133 6.52978C10.1403 6.09735 9.41599 5.83789 8.64842 5.83789C6.73491 5.83789 5.18896 7.38384 5.18896 9.28654V15.0271H7.8268V9.25411C7.8268 8.82167 8.17275 8.47573 8.60518 8.47573C9.03761 8.47573 9.38356 8.82167 9.38356 9.25411V15.0271H12.0214V9.25411C12.0214 8.82167 12.3673 8.47573 12.7998 8.47573C13.2322 8.47573 13.5782 8.82167 13.5782 9.25411V15.0271H16.216V9.28654C16.216 7.38384 14.6809 5.83789 12.7782 5.83789Z" fill="white"/>
</svg>
