<svg width="24" height="24" viewBox="0 0 24 24" fill="none" xmlns="http://www.w3.org/2000/svg">
<path d="M20.5718 14.9999C19.0288 14.9999 18.8568 13.7999 18.8568 13.2849V8.99994C18.8568 5.22794 15.7718 2.14294 11.9998 2.14294C8.22978 2.14294 5.14278 5.22794 5.14278 8.99994V13.2849C5.14278 13.7999 4.97178 14.9999 3.42878 14.9999C3.20173 15.0007 2.98421 15.0913 2.82366 15.2518C2.66311 15.4124 2.57257 15.6299 2.57178 15.8569V18.4279C2.57257 18.655 2.66311 18.8725 2.82366 19.0331C2.98421 19.1936 3.20173 19.2842 3.42878 19.2849H9.42878C9.43062 19.9663 9.70206 20.6193 10.1838 21.1012C10.6655 21.5831 11.3184 21.8548 11.9998 21.8569C12.6813 21.8551 13.3345 21.5835 13.8164 21.1016C14.2984 20.6196 14.5699 19.9665 14.5718 19.2849H20.5718C20.7988 19.2842 21.0163 19.1936 21.1769 19.0331C21.3374 18.8725 21.428 18.655 21.4288 18.4279V15.8569C21.428 15.6299 21.3374 15.4124 21.1769 15.2518C21.0163 15.0913 20.7988 15.0007 20.5718 14.9999ZM11.9998 20.1429C11.7726 20.1422 11.5549 20.0515 11.3943 19.8907C11.2337 19.7299 11.1433 19.5122 11.1428 19.2849H12.8568C12.8562 19.5122 12.7658 19.7299 12.6052 19.8907C12.4447 20.0515 12.227 20.1422 11.9998 20.1429ZM19.7138 17.5709H4.28578V16.6279C6.04278 16.2849 6.85678 14.7849 6.85678 13.2849V8.99994C6.85678 6.17094 9.17178 3.85694 11.9998 3.85694C14.8288 3.85694 17.1428 6.17094 17.1428 8.99994V13.2849C17.1428 14.7849 17.9568 16.2849 19.7138 16.6279V17.5709Z" fill="#0E0F0C"/>
<circle cx="17.5" cy="4.5" r="4.5" fill="#E74848"/>
</svg>
