<svg width="20" height="20" viewBox="0 0 20 20" fill="none" xmlns="http://www.w3.org/2000/svg">
<path d="M18.5718 12.9999C17.0288 12.9999 16.8568 11.7999 16.8568 11.2849V6.99994C16.8568 3.22794 13.7718 0.142944 9.99978 0.142944C6.22978 0.142944 3.14278 3.22794 3.14278 6.99994V11.2849C3.14278 11.7999 2.97178 12.9999 1.42878 12.9999C1.20173 13.0007 0.984208 13.0913 0.82366 13.2518C0.663113 13.4124 0.572568 13.6299 0.571777 13.8569V16.4279C0.572568 16.655 0.663113 16.8725 0.82366 17.0331C0.984208 17.1936 1.20173 17.2842 1.42878 17.2849H7.42878C7.43062 17.9663 7.70206 18.6193 8.18378 19.1012C8.66551 19.5831 9.31838 19.8548 9.99978 19.8569C10.6813 19.8551 11.3345 19.5835 11.8164 19.1016C12.2984 18.6196 12.5699 17.9665 12.5718 17.2849H18.5718C18.7988 17.2842 19.0163 17.1936 19.1769 17.0331C19.3374 16.8725 19.428 16.655 19.4288 16.4279V13.8569C19.428 13.6299 19.3374 13.4124 19.1769 13.2518C19.0163 13.0913 18.7988 13.0007 18.5718 12.9999ZM9.99978 18.1429C9.77256 18.1422 9.55488 18.0515 9.39431 17.8907C9.23373 17.7299 9.1433 17.5122 9.14278 17.2849H10.8568C10.8562 17.5122 10.7658 17.7299 10.6052 17.8907C10.4447 18.0515 10.227 18.1422 9.99978 18.1429ZM17.7138 15.5709H2.28578V14.6279C4.04278 14.2849 4.85678 12.7849 4.85678 11.2849V6.99994C4.85678 4.17094 7.17178 1.85694 9.99978 1.85694C12.8288 1.85694 15.1428 4.17094 15.1428 6.99994V11.2849C15.1428 12.7849 15.9568 14.2849 17.7138 14.6279V15.5709Z" fill="#0E0F0C"/>
</svg>
