<svg width="40" height="40" viewBox="0 0 40 40" fill="none" xmlns="http://www.w3.org/2000/svg">
<g clip-path="url(#clip0_1471_6289)">
<path fill-rule="evenodd" clip-rule="evenodd" d="M25.143 16.57H27.714C27.941 16.5708 28.1586 16.6613 28.3191 16.8219C28.4796 16.9824 28.5702 17.2 28.571 17.427V27.713C28.5689 28.3942 28.2973 29.047 27.8156 29.5287C27.3339 30.0104 26.6812 30.2819 26 30.284H14C13.3186 30.2822 12.6656 30.0107 12.1837 29.529C11.7018 29.0473 11.4301 28.3944 11.428 27.713V17.427C11.4288 17.1998 11.5195 16.9821 11.6802 16.8215C11.841 16.661 12.0588 16.5705 12.286 16.57H14.857V14.856C14.857 12.027 17.171 9.71301 20 9.71301C22.829 9.71301 25.143 12.027 25.143 14.856V16.57ZM20 11.427C19.0912 11.4294 18.2203 11.7914 17.5776 12.4339C16.9349 13.0764 16.5726 13.9472 16.57 14.856V16.57H23.427V14.856C23.4243 13.9477 23.0625 13.0774 22.4204 12.435C21.7784 11.7925 20.9082 11.4302 20 11.427ZM26 28.57C26.227 28.5692 26.4446 28.4787 26.6051 28.3181C26.7656 28.1576 26.8562 27.9401 26.857 27.713V18.284H13.143V27.713C13.1438 27.9401 13.2343 28.1576 13.3949 28.3181C13.5554 28.4787 13.7729 28.5692 14 28.57H26ZM19.143 26.854V24.024C18.628 23.768 18.285 23.211 18.285 22.568C18.2866 22.1137 18.4678 21.6786 18.7891 21.3574C19.1104 21.0363 19.5457 20.8553 20 20.854C20.4541 20.8556 20.8891 21.0367 21.2102 21.3578C21.5313 21.6789 21.7124 22.1139 21.714 22.568C21.714 23.168 21.371 23.725 20.857 24.025V26.854H19.143Z" fill="black"/>
</g>
<defs>
<clipPath id="clip0_1471_6289">
<rect width="40" height="40" rx="20" fill="white"/>
</clipPath>
</defs>
</svg>
