<svg width="48" height="48" viewBox="0 0 48 48" fill="none" xmlns="http://www.w3.org/2000/svg">
<g clip-path="url(#clip0_1471_6298)">
<path fill-rule="evenodd" clip-rule="evenodd" d="M14.5709 25.287L15.2839 25.763L15.2879 25.757C15.3284 25.6965 15.3711 25.6374 15.4159 25.58C15.5109 25.454 15.6559 25.268 15.8499 25.043C16.3717 24.4389 16.9478 23.8839 17.5709 23.385C19.0819 22.176 21.2559 21.001 23.9999 21.001C26.7439 21.001 28.9179 22.176 30.4289 23.385C31.0517 23.8839 31.6274 24.4389 32.1489 25.043C32.3469 25.2726 32.5348 25.5109 32.7119 25.757L32.7159 25.763L33.4289 25.287C34.1419 24.812 34.1419 24.811 34.1409 24.811L34.1399 24.809L34.1359 24.803L34.1259 24.788C34.0714 24.7077 34.0148 24.629 33.9559 24.552C33.8389 24.397 33.6699 24.182 33.4489 23.924C32.8577 23.2396 32.205 22.611 31.4989 22.046C29.7979 20.684 27.2569 19.287 23.9999 19.287C20.7439 19.287 18.2029 20.684 16.4999 22.047C15.7942 22.6117 15.1418 23.24 14.5509 23.924C14.3123 24.2016 14.0864 24.4899 13.8739 24.788L13.8639 24.803L13.8599 24.808V24.81L13.8589 24.811L14.5709 25.287ZM23.9999 27.858C24.3375 27.858 24.6718 27.7915 24.9838 27.6623C25.2957 27.5331 25.5791 27.3437 25.8179 27.105C26.0566 26.8662 26.246 26.5828 26.3752 26.2709C26.5044 25.9589 26.5709 25.6246 26.5709 25.287C26.5709 24.9494 26.5044 24.615 26.3752 24.3031C26.246 23.9912 26.0566 23.7078 25.8179 23.469C25.5791 23.2303 25.2957 23.0409 24.9838 22.9117C24.6718 22.7825 24.3375 22.716 23.9999 22.716C23.3179 22.716 22.6638 22.9869 22.1816 23.4692C21.6993 23.9514 21.4284 24.6055 21.4284 25.2875C21.4284 25.9695 21.6993 26.6236 22.1816 27.1058C22.6638 27.5881 23.3179 27.859 23.9999 27.859V27.858Z" fill="black"/>
</g>
<defs>
<clipPath id="clip0_1471_6298">
<rect x="4" y="4" width="40" height="40" rx="20" fill="white"/>
</clipPath>
</defs>
</svg>
