<svg width="75" height="66" viewBox="0 0 75 66" fill="none" xmlns="http://www.w3.org/2000/svg">
<path d="M38.3757 62.3477C38.1347 62.4454 37.8653 62.4454 37.6243 62.3477L2.04983 47.9267C1.03182 47.5141 1.32704 46 2.42551 46L73.5745 46C74.673 46 74.9682 47.5141 73.9502 47.9268L38.3757 62.3477Z" fill="#BAEC97"/>
<path d="M41.4213 59.852C39.8644 62.4221 36.1356 62.4221 34.5787 59.852L13.9655 25.8224C12.3507 23.1566 14.2701 19.75 17.3868 19.75L58.6132 19.75C61.7299 19.75 63.6493 23.1566 62.0345 25.8224L41.4213 59.852Z" fill="#F7F3F1"/>
<circle cx="38" cy="9.5" r="9" fill="#2F5711"/>
<mask id="mask0_1471_2315" style="mask-type:alpha" maskUnits="userSpaceOnUse" x="14" y="19" width="50" height="43">
<path d="M42.4213 59.852C40.8644 62.4221 37.1356 62.4221 35.5787 59.852L14.9655 25.8224C13.3507 23.1566 15.2701 19.75 18.3868 19.75L59.6132 19.75C62.7299 19.75 64.6493 23.1566 63.0345 25.8224L42.4213 59.852Z" fill="#F7F3F1"/>
</mask>
<g mask="url(#mask0_1471_2315)">
<path d="M48 18C48 19.9891 47.0518 21.8968 45.364 23.3033C43.6761 24.7098 41.3869 25.5 39 25.5C36.6131 25.5 34.3239 24.7098 32.636 23.3033C30.9482 21.8968 30 19.9891 30 18L39 18H48Z" fill="#E7E4E1"/>
</g>
</svg>
