<svg width="23" height="20" viewBox="0 0 23 20" fill="none" xmlns="http://www.w3.org/2000/svg">
<path d="M22.171 11.287L11.714 0.828972C11.6366 0.74777 11.5435 0.683129 11.4404 0.638962C11.3372 0.594795 11.2262 0.572021 11.114 0.572021C11.0018 0.572021 10.8908 0.594795 10.7877 0.638962C10.6845 0.683129 10.5914 0.74777 10.514 0.828972L0.0570068 11.287L1.25701 12.487L3.40001 10.344V18.572C3.4008 18.799 3.49134 19.0165 3.65189 19.1771C3.81244 19.3376 4.02996 19.4282 4.25701 19.429H17.972C18.1991 19.4282 18.4166 19.3376 18.5771 19.1771C18.7377 19.0165 18.8282 18.799 18.829 18.572V10.344L20.971 12.487L22.171 11.287ZM17.114 17.715H5.11401V8.62997L11.114 2.62997L17.114 8.62997V17.715Z" fill="black"/>
</svg>
