<svg width="20" height="20" viewBox="0 0 20 20" fill="none" xmlns="http://www.w3.org/2000/svg">
<path d="M18.9719 13C17.4289 13 17.2569 11.8 17.2569 11.285V7.00001C17.2569 3.22801 14.1719 0.143005 10.3999 0.143005C6.62992 0.143005 3.54292 3.22801 3.54292 7.00001V11.285C3.54292 11.8 3.37192 13 1.82892 13C1.60188 13.0008 1.38435 13.0913 1.22381 13.2519C1.06326 13.4124 0.972714 13.63 0.971924 13.857V16.428C0.972714 16.6551 1.06326 16.8726 1.22381 17.0331C1.38435 17.1937 1.60188 17.2842 1.82892 17.285H7.82892C7.83077 17.9664 8.1022 18.6194 8.58393 19.1013C9.06566 19.5832 9.71853 19.8549 10.3999 19.857C11.0815 19.8552 11.7346 19.5836 12.2166 19.1016C12.6985 18.6197 12.9701 17.9666 12.9719 17.285H18.9719C19.199 17.2842 19.4165 17.1937 19.577 17.0331C19.7376 16.8726 19.8281 16.6551 19.8289 16.428V13.857C19.8281 13.63 19.7376 13.4124 19.577 13.2519C19.4165 13.0913 19.199 13.0008 18.9719 13ZM10.3999 18.143C10.1727 18.1422 9.95503 18.0515 9.79445 17.8908C9.63388 17.73 9.54345 17.5122 9.54292 17.285H11.2569C11.2564 17.5122 11.166 17.73 11.0054 17.8908C10.8448 18.0515 10.6271 18.1422 10.3999 18.143ZM18.1139 15.571H2.68592V14.628C4.44292 14.285 5.25692 12.785 5.25692 11.285V7.00001C5.25692 4.17101 7.57192 1.85701 10.3999 1.85701C13.2289 1.85701 15.5429 4.17101 15.5429 7.00001V11.285C15.5429 12.785 16.3569 14.285 18.1139 14.628V15.571Z" fill="black"/>
</svg>
