<svg width="25" height="24" viewBox="0 0 25 24" fill="none" xmlns="http://www.w3.org/2000/svg">
<path fill-rule="evenodd" clip-rule="evenodd" d="M5.086 11.144H11.086C11.3131 11.1432 11.5306 11.0527 11.6911 10.8921C11.8517 10.7316 11.9422 10.514 11.943 10.287V4.28699C11.9422 4.05995 11.8517 3.84242 11.6911 3.68188C11.5306 3.52133 11.3131 3.43078 11.086 3.42999H5.086C4.85896 3.43078 4.64143 3.52133 4.48089 3.68188C4.32034 3.84242 4.22979 4.05995 4.229 4.28699V10.287C4.22979 10.514 4.32034 10.7316 4.48089 10.8921C4.64143 11.0527 4.85896 11.1432 5.086 11.144ZM10.229 9.42999H5.943V5.14399H10.229V9.42999ZM14.514 11.144H20.514C20.7412 11.1435 20.959 11.053 21.1198 10.8925C21.2805 10.7319 21.3712 10.5142 21.372 10.287V4.28699C21.3712 4.05995 21.2807 3.84242 21.1201 3.68188C20.9596 3.52133 20.7421 3.43078 20.515 3.42999H14.515C14.2878 3.43052 14.07 3.52095 13.9092 3.68152C13.7485 3.8421 13.6578 4.05977 13.657 4.28699V10.287C13.6578 10.514 13.7483 10.7316 13.9089 10.8921C14.0694 11.0527 14.287 11.1432 14.514 11.144ZM19.657 9.42999H15.372V5.14399H19.657V9.42999ZM11.086 20.572H5.086C4.85896 20.5712 4.64143 20.4807 4.48089 20.3201C4.32034 20.1596 4.22979 19.942 4.229 19.715V13.715C4.22953 13.4878 4.31996 13.27 4.48054 13.1092C4.64111 12.9485 4.85878 12.8578 5.086 12.857H11.086C11.3132 12.8578 11.5309 12.9485 11.6915 13.1092C11.852 13.27 11.9425 13.4878 11.943 13.715V19.715C11.9422 19.942 11.8517 20.1596 11.6911 20.3201C11.5306 20.4807 11.3131 20.5712 11.086 20.572ZM5.943 18.857H10.229V14.572H5.943V18.857ZM14.515 20.572H20.515C20.7421 20.5712 20.9596 20.4807 21.1201 20.3201C21.2807 20.1596 21.3712 19.942 21.372 19.715V13.715C21.3715 13.4878 21.281 13.27 21.1205 13.1092C20.9599 12.9485 20.7422 12.8578 20.515 12.857H14.515C14.2876 12.8575 14.0697 12.9481 13.9089 13.1089C13.7481 13.2697 13.6575 13.4876 13.657 13.715V19.715C13.6578 19.9422 13.7485 20.1599 13.9092 20.3205C14.07 20.481 14.2878 20.5715 14.515 20.572ZM19.657 18.857H15.372V14.572H19.657V18.857Z" fill="black"/>
</svg>
