<svg width="22" height="15" viewBox="0 0 22 15" fill="none" xmlns="http://www.w3.org/2000/svg">
<path fill-rule="evenodd" clip-rule="evenodd" d="M1.35001 0H0.600006V0.75V0.761743V0.773533V0.785371V0.797257V0.809189V0.821168V0.833194V0.845266V0.857384V0.869548V0.881757V0.894011V0.90631V0.918654V0.931043V0.943475V0.955952V0.968472V0.981036V0.993642V1.00629V1.01898V1.03172V1.0445V1.05731V1.07017V1.08308V1.09602V1.109V1.12203V1.13509V1.14819V1.16134V1.17452V1.18774V1.20101V1.21431V1.22764V1.24102V1.25444V1.26789V1.28138V1.29491V1.30847V1.32207V1.33571V1.34938V1.36309V1.37684V1.39062V1.40443V1.41828V1.43217V1.44609V1.46004V1.47403V1.48805V1.5021V1.51619V1.53031V1.54446V1.55864V1.57286V1.58711V1.60139V1.6157V1.63004V1.64441V1.65882V1.67325V1.68771V1.70221V1.71673V1.73128V1.74586V1.76047V1.7751V1.78977V1.80446V1.81918V1.83393V1.84871V1.86351V1.87834V1.89319V1.90807V1.92298V1.93791V1.95287V1.96785V1.98286V1.99789V2.01294V2.02802V2.04313V2.05825V2.0734V2.08857V2.10377V2.11899V2.13423V2.14949V2.16477V2.18008V2.1954V2.21075V2.22612V2.2415V2.25691V2.27234V2.28779V2.30325V2.31874V2.33424V2.34977V2.36531V2.38086V2.39644V2.41204V2.42765V2.44327V2.45892V2.47458V2.49026V2.50595V2.52166V2.53739V2.55312V2.56888V2.58465V2.60043V2.61623V2.63204V2.64787V2.6637V2.67956V2.69542V2.7113V2.72719V2.74309V2.759V2.77492V2.79086V2.80681V2.82276V2.83873V2.85471V2.8707V2.88669V2.9027V2.91872V2.93474V2.95078V2.96682V2.98287V2.99893V3.01499V3.03107V3.04715V3.06323V3.07933V3.09543V3.11153V3.12764V3.14376V3.15988V3.17601V3.19214V3.20828V3.22442V3.24057V3.25672V3.27287V3.28902V3.30518V3.32134V3.33751V3.35367V3.36984V3.38601V3.40218V3.41835V3.43453V3.4507V3.46687V3.48305V3.49922V3.51539V3.53157V3.54774V3.56391V3.58008V3.59625V3.61241V3.62857V3.64473V3.66089V3.67705V3.6932V3.70935V3.72549V3.74163V3.75777V3.7739V3.79002V3.80615V3.82226V3.83837V3.85448V3.87058V3.88667V3.90275V3.91883V3.9349V3.95097V3.96702V3.98307V3.99911V4.01514V4.03117V4.04718V4.06319V4.07918V4.09517V4.11114V4.12711V4.14306V4.15901V4.17494V4.19086V4.20677V4.22267V4.23855V4.25443V4.27029V4.28614V4.30197V4.31779V4.3336V4.3494V4.36518V4.38094V4.39669V4.41243V4.42815V4.44385V4.45954V4.47522V4.49087V4.50652V4.52214V4.53775V4.55334V4.56891V4.58446V4.6V4.61552V4.63102V4.6465V4.66196V4.6774V4.69283V4.70823V4.72361V4.73897V4.75431V4.76964V4.78493V4.80021V4.81547V4.8307V4.84592V4.86111V4.87627V4.89142V4.90654V4.92164V4.93671V4.95176V4.96679V4.98179V4.99676V5.01171V5.02664V5.04154V5.05641V5.07126V5.08608V5.10088V5.11565V5.13039V5.1451V5.15979V5.17445V5.18908V5.20368V5.21825V5.2328V5.24731V5.2618V5.27625V5.29068V5.30507V5.31944V5.33377V5.34808V5.36235V5.37659V5.3908V5.40498V5.41912V5.43323V5.44731V5.46136V5.47537V5.48935V5.50329V5.5172V5.53108V5.54492V5.55873V5.5725V5.58624V5.59994V5.6136V5.62723V5.64082V5.65438V5.6679V5.68138V5.69482V5.70823V5.7216V5.73493V5.74822V5.76147V5.77468V5.78786V5.80099V5.81408V5.82714V5.84015V5.85313V5.86606V5.87895V5.8918V5.90461V5.91738V5.9301V5.94278V5.95542V5.96802V5.98057V5.99308V6.00555V6.01797V6.03035V6.04268V6.05497V6.06721V6.07941V6.09156V6.10367V6.11573V6.12774V6.13971V6.15163V6.16351V6.17533V6.18711V6.19884V6.21053V6.22216V6.23375V6.24528V6.25677V6.26821V6.2796V6.29094V6.30223V6.31347V6.32465V6.33579V6.34688V6.35791V6.36889V6.37982V6.3907V6.40152V6.4123V6.42302V6.43368V6.44429V6.45485V6.46536V6.47581V6.4862V6.49654V6.50683V6.51706V6.52723V6.53735V6.54741V6.55742V6.56737V6.57726V6.5871V6.59688V6.6066V6.61626V6.62586V6.63541V6.64489V6.65432V6.66369V6.673V6.68225V6.69144V6.70056V6.70963V6.71864V6.72759V6.73647V6.74529V6.75405V6.76275V6.77139V6.77996V6.78848V6.79692V6.80531V6.81363V6.82189V6.83008V6.83821V6.84627V6.85427V6.8622V6.87007V6.87787V6.88561V6.89328V6.90088V6.90842V6.91589V6.92329V6.93062V6.93789V6.94509V6.95222V6.95928V6.96627V6.9732V6.98005V6.98684V6.99355V7.0002V7.00677V7.01327V7.01971V7.02607V7.03236V7.03857V7.04472V7.05079V7.0568V7.06272V7.06858V7.07436V7.08007V7.08571V7.09127V7.09675V7.10217V7.1075V7.11276V7.11795V7.12306V7.1281V7.13306V7.13794V7.14275V7.14747V7.15213V7.1567V7.1612V7.16562V7.16996V7.17422V7.1784V7.18251V7.18653V7.19048V7.19435V7.19813V7.20184V7.20546V7.20901V7.21247V7.21585V7.21915V7.22237V7.22551V7.22856V7.23153V7.23442V7.23723V7.23995V7.24259V7.24514V7.24761V7.25V7.60128L0.869868 7.82617C1.91192 8.69454 1.99255 9.38636 1.89268 9.83812C1.77398 10.3751 1.33904 10.8559 0.933981 11.126L0.600006 11.3486V11.75V14.25V15H1.35001H20.35H21.1V14.25V0.75V0H20.35H1.35001ZM2.10001 1.5021V1.5H19.6V13.5H2.10001V12.124C2.61929 11.6913 3.1677 11.0197 3.35733 10.1619C3.59006 9.10902 3.2432 7.97542 2.10001 6.91129V6.90842V6.90088V6.89328V6.88561V6.87787V6.87007V6.8622V6.85427V6.84627V6.83821V6.83008V6.82189V6.81363V6.80531V6.79692V6.78848V6.77996V6.77139V6.76275V6.75405V6.74529V6.73647V6.72759V6.71864V6.70963V6.70056V6.69144V6.68225V6.673V6.66369V6.65432V6.64489V6.63541V6.62586V6.61626V6.6066V6.59688V6.5871V6.57726V6.56737V6.55742V6.54741V6.53735V6.52723V6.51706V6.50683V6.49654V6.4862V6.47581V6.46536V6.45485V6.44429V6.43368V6.42302V6.4123V6.40152V6.3907V6.37982V6.36889V6.35791V6.34688V6.33579V6.32465V6.31347V6.30223V6.29094V6.2796V6.26821V6.25677V6.24528V6.23375V6.22216V6.21053V6.19884V6.18711V6.17533V6.16351V6.15163V6.13971V6.12774V6.11573V6.10367V6.09156V6.07941V6.06721V6.05497V6.04268V6.03035V6.01797V6.00555V5.99308V5.98057V5.96802V5.95542V5.94278V5.9301V5.91738V5.90461V5.8918V5.87895V5.86606V5.85313V5.84015V5.82714V5.81408V5.80099V5.78786V5.77468V5.76147V5.74822V5.73493V5.7216V5.70823V5.69482V5.68138V5.6679V5.65438V5.64082V5.62723V5.6136V5.59994V5.58624V5.5725V5.55873V5.54492V5.53108V5.5172V5.50329V5.48935V5.47537V5.46136V5.44731V5.43323V5.41912V5.40498V5.3908V5.37659V5.36235V5.34808V5.33377V5.31944V5.30507V5.29068V5.27625V5.2618V5.24731V5.2328V5.21825V5.20368V5.18908V5.17445V5.15979V5.1451V5.13039V5.11565V5.10088V5.08608V5.07126V5.05641V5.04154V5.02664V5.01171V4.99676V4.98179V4.96679V4.95176V4.93671V4.92164V4.90654V4.89142V4.87627V4.86111V4.84592V4.8307V4.81547V4.80021V4.78493V4.76964V4.75431V4.73897V4.72361V4.70823V4.69283V4.6774V4.66196V4.6465V4.63102V4.61552V4.6V4.58446V4.56891V4.55334V4.53775V4.52214V4.50652V4.49087V4.47522V4.45954V4.44385V4.42815V4.41243V4.39669V4.38094V4.36518V4.3494V4.3336V4.31779V4.30197V4.28614V4.27029V4.25443V4.23855V4.22267V4.20677V4.19086V4.17494V4.15901V4.14306V4.12711V4.11114V4.09517V4.07918V4.06319V4.04718V4.03117V4.01514V3.99911V3.98307V3.96702V3.95097V3.9349V3.91883V3.90275V3.88667V3.87058V3.85448V3.83837V3.82226V3.80615V3.79002V3.7739V3.75777V3.74163V3.72549V3.70935V3.6932V3.67705V3.66089V3.64473V3.62857V3.61241V3.59625V3.58008V3.56391V3.54774V3.53157V3.51539V3.49922V3.48305V3.46687V3.4507V3.43453V3.41835V3.40218V3.38601V3.36984V3.35367V3.33751V3.32134V3.30518V3.28902V3.27287V3.25672V3.24057V3.22442V3.20828V3.19214V3.17601V3.15988V3.14376V3.12764V3.11153V3.09543V3.07933V3.06323V3.04715V3.03107V3.01499V2.99893V2.98287V2.96682V2.95078V2.93474V2.91872V2.9027V2.88669V2.8707V2.85471V2.83873V2.82276V2.80681V2.79086V2.77492V2.759V2.74309V2.72719V2.7113V2.69542V2.67956V2.6637V2.64787V2.63204V2.61623V2.60043V2.58465V2.56888V2.55312V2.53739V2.52166V2.50595V2.49026V2.47458V2.45892V2.44327V2.42765V2.41204V2.39644V2.38086V2.36531V2.34977V2.33424V2.31874V2.30325V2.28779V2.27234V2.25691V2.2415V2.22612V2.21075V2.1954V2.18008V2.16477V2.14949V2.13423V2.11899V2.10377V2.08857V2.0734V2.05825V2.04313V2.02802V2.01294V1.99789V1.98286V1.96785V1.95287V1.93791V1.92298V1.90807V1.89319V1.87834V1.86351V1.84871V1.83393V1.81918V1.80446V1.78977V1.7751V1.76047V1.74586V1.73128V1.71673V1.70221V1.68771V1.67325V1.65882V1.64441V1.63004V1.6157V1.60139V1.58711V1.57286V1.55864V1.54446V1.53031V1.51619V1.5021ZM14.85 11H17.35V9.5H14.85V11Z" fill="black"/>
</svg>
